#!Matlab matrix to amc conversion
:FULLY-SPECIFIED
:DEGREES
16
root 9.192140 16.357400 -29.724600 0.923100 1.634016 -0.086584
lowerback -1.242703 0.381608 -2.639792
upperback -2.122142 0.479197 0.604312
thorax -1.417945 0.293123 2.046680
lowerneck -15.327791 -0.419319 -1.739467
upperneck 36.889290 0.580081 -1.653745
head 15.984648 -0.200849 -0.321707
rclavicle -0.000000 0.000000
rhumerus -43.340278 -11.793751 -72.969337
rradius 26.624458
rwrist -7.494126
rhand -4.259836 11.492117
rfingers 7.125020
rthumb 21.504609 -17.272167
lclavicle -0.000000 0.000000
lhumerus -34.428633 16.700352 67.307748
lradius 47.822277
lwrist -0.324208
lhand -4.505850 18.823740
lfingers 7.125020
lthumb 21.265603 47.607289
rfemur -35.952646 15.906981 12.422077
rtibia 22.752078
rfoot -18.324893 -24.185220
rtoes 4.152010
lfemur 3.079565 -8.551897 -26.574963
ltibia 12.777779
lfoot -19.153749 19.014682
ltoes -15.471495
17
root 9.191770 16.245600 -29.440800 1.073797 1.634016 -0.128238
lowerback -1.231569 0.430798 -2.571564
upperback -1.954669 0.555964 0.670489
thorax -1.255511 0.327519 2.093081
lowerneck -15.497214 -0.420566 -1.809715
upperneck 37.187920 0.641465 -1.706169
head 16.190668 -0.196466 -0.326521
rclavicle -0.000000 0.000000
rhumerus -43.395667 -12.067744 -72.567278
rradius 25.929531
rwrist -6.707095
rhand -4.440145 11.286913
rfingers 7.125020
rthumb 21.335611 -17.482511
lclavicle -0.000000 0.000000
lhumerus -34.570980 16.759031 66.761087
lradius 47.436735
lwrist -0.645938
lhand -4.664889 18.719984
lfingers 7.125020
lthumb 21.112306 47.522866
rfemur -36.287840 16.558276 12.301278
rtibia 22.899297
rfoot -17.835207 -24.018502
rtoes 5.038175
lfemur 6.265772 -8.295706 -26.766141
ltibia 11.670161
lfoot -18.156708 19.036863
ltoes -17.118712
18
root 9.208550 16.156600 -29.151500 1.308430 1.634016 -0.222514
lowerback -1.211644 0.487054 -2.436223
upperback -1.781402 0.640070 0.752358
thorax -1.094833 0.365509 2.131968
lowerneck -15.674097 -0.420386 -1.876852
upperneck 37.486267 0.705934 -1.766636
head 16.397675 -0.191043 -0.336289
rclavicle -0.000000 0.000000
rhumerus -43.433253 -12.395327 -72.124686
rradius 25.175340
rwrist -5.783487
rhand -4.631513 11.024158
rfingers 7.125020
rthumb 21.156051 -17.769427
lclavicle -0.000000 0.000000
lhumerus -34.806448 16.817497 66.222889
lradius 47.010163
lwrist -0.948800
lhand -4.848501 18.642551
lfingers 7.125020
lthumb 20.935385 47.469317
rfemur -36.569987 16.856954 12.599376
rtibia 23.652654
rfoot -16.835618 -23.421183
rtoes 5.870121
lfemur 9.534802 -7.997036 -26.929184
ltibia 10.732040
lfoot -16.985565 19.047704
ltoes -19.116147
19
root 9.222000 16.080900 -28.855000 1.755562 1.634016 -0.155681
lowerback -1.216148 0.700875 -0.432891
upperback -1.760132 0.934736 1.296574
thorax -1.084754 0.492761 1.616362
lowerneck -15.584233 -0.270607 -1.725095
upperneck 37.836557 0.962878 -1.960599
head 16.570054 -0.085515 -0.414199
rclavicle -0.000000 0.000000
rhumerus -43.133379 -13.448513 -71.070957
rradius 23.863676
rwrist -4.508008
rhand -4.516878 10.709488
rfingers 7.125020
rthumb 21.265239 -18.111518
lclavicle -0.000000 0.000000
lhumerus -37.547300 17.822122 65.934698
lradius 45.849454
lwrist 0.240607
lhand -5.444182 20.432877
lfingers 7.125020
lthumb 20.367591 49.310338
rfemur -34.521567 15.472046 16.537059
rtibia 26.790925
rfoot -14.320729 -20.161361
rtoes 5.790425
lfemur 6.450036 -6.300660 -24.748739
ltibia 20.862807
lfoot -14.199356 18.351503
ltoes -19.998125
